PathFileType	4	(X/Y/Z)	pose2sim_0-881.trc
DataRate	CameraRate	NumFrames	NumMarkers	Units	OrigDataRate	OrigDataStartFrame	OrigNumFrames
50	50	6	22	m	50	330	882
Frame#	Time	Hip			RHip			RKnee			RAnkle			RBigToe			RSmallToe			RHeel			LHip			LKnee			LAnkle			LBigToe			LSmallToe			LHeel			Neck			Head			Nose			RShoulder			RElbow			RWrist			LShoulder			LElbow			LWrist			
		X1	Y1	Z1	X2	Y2	Z2	X3	Y3	Z3	X4	Y4	Z4	X5	Y5	Z5	X6	Y6	Z6	X7	Y7	Z7	X8	Y8	Z8	X9	Y9	Z9	X10	Y10	Z10	X11	Y11	Z11	X12	Y12	Z12	X13	Y13	Z13	X14	Y14	Z14	X15	Y15	Z15	X16	Y16	Z16	X17	Y17	Z17	X18	Y18	Z18	X19	Y19	Z19	X20	Y20	Z20	X21	Y21	Z21	X22	Y22	Z22	
330	6.6	0.13382486753233405	0.9778663155460761	-0.05149071621553367	0.03240203340715974	0.9598883556953517	-0.049019048031987214	0.01478377363104252	0.516362583863392	-0.07132608743618674	0.0013697316212989905	0.08982423875458338	-0.09695486217483183	0.01900012810959458	0.03657666565852614	0.0980536746986266	-0.033671905916630704	0.03643179052007959	0.06121152169557958	0.007594707757208261	0.04420369554428461	-0.12974110143175285	0.23905414390363958	0.9575801551097791	-0.06659485579787261	0.24143281559406451	0.5158968861889792	-0.10831974781455761	0.24427716211399897	0.09056829558117392	-0.11474343568437956	0.2726685756532859	0.03558615833173688	0.08046617279845704	0.31136964306900233	0.04110257749029725	0.02090143243869825	0.23369934279060972	0.04641355466520398	-0.1572598834886238	0.1457072959750017	1.5732858148468343	-0.10239084507701826	0.14917677749340444	1.8233904402832102	-0.07213742677831436	0.14038150990133821	1.6942956535985003	0.04733630854365379	-0.006908579013232213	1.4777015782606906	-0.09464721686068693	-0.07503408301617438	1.2743175737259176	0.07609980465747877	-0.09318925865025117	1.4869622559330675	0.21447982063299287	0.3010716214090072	1.4750268181270463	-0.11779184743056959	0.39049829403978686	1.2617571543854018	0.05391749607915728	0.4031952664074302	1.4671128903982875	0.19435947115301044
331	6.62	0.13383724278403816	0.9771669968427711	-0.05429428879973271	0.03262274889020411	0.9603825456261574	-0.044140557123909255	0.015284496886830902	0.5171167207407774	-0.0666256570841937	0.0015882726103475916	0.08883707393859167	-0.09472024860377838	0.023245511289057087	0.035506292115368536	0.0976017022617516	-0.03286264822254176	0.03858715258167105	0.053383550871703045	0.008816392138255951	0.04629096984659247	-0.13799115318581556	0.24054784227952772	0.9567360802221029	-0.06695664075170167	0.24165305782050306	0.5165942403643746	-0.10405555747883458	0.24443078878072017	0.0913347573571431	-0.1193420404080676	0.27108584024936616	0.034765125909250356	0.08066904814909548	0.31150878603717463	0.040284083752748924	0.018090735531830663	0.2326714679991466	0.04560917756508298	-0.1494887273196363	0.14604111423164412	1.5753447442266189	-0.09929818190221494	0.14784752035157647	1.8239375894199727	-0.07274573816069188	0.13921845413594994	1.6947016114285522	0.05354597156789041	-0.004249564449917475	1.4771406019437676	-0.0979017893937646	-0.07851200894244412	1.270135321440944	0.07264471405693988	-0.10167720702787725	1.481106743605062	0.237807406858737	0.30522212732589765	1.4745077011282446	-0.11956960049239466	0.3930405455175605	1.2601824263651697	0.04886182866447628	0.4101444213312015	1.4596880921134003	0.2014689875532857
332	6.64	0.13541661531309793	0.985952712596708	-0.053973497194378675	0.03449751039361356	0.9672128098155591	-0.04277365663446379	0.015890839354565985	0.5153375712340565	-0.06817245514576559	0.002190190274992644	0.09298457892342431	-0.08932543307979306	0.011329751667243364	0.04610144702113402	0.11116249766111391	-0.043776159103265454	0.04007917442763738	0.053784787807581134	0.014826385891334	0.047809167836614555	-0.12573746870008343	0.23810279256883904	0.9638945624101994	-0.05600699553741486	0.24018934381772025	0.5119981475543657	-0.1023041417955294	0.2454215634748263	0.09026012590119128	-0.114199714440024	0.274652644049354	0.03978030688666377	0.08722492213222285	0.31409631904219815	0.036445119587287286	0.025976148375153243	0.23177079267867645	0.04609712420161239	-0.1482429042463623	0.14674278935339596	1.5749821774947554	-0.11546231782962636	0.14982977618629015	1.8242854040296597	-0.07792745171216252	0.1461512131134688	1.6907600811494252	0.04886020506998103	-0.0075182751604092116	1.4772654178678577	-0.10622972045505892	-0.0762361837914157	1.266554702990691	0.08192391149142281	-0.11491787949951052	1.4724244039190566	0.23845775722981188	0.3049693262448512	1.4735048683310659	-0.1272260565762251	0.3966710498124909	1.2560571766281625	0.03598386923598809	0.42026342336916195	1.4537147473242311	0.20787125463661715
333	6.66	0.1354321053090491	0.9795821412142671	-0.0594645076377934	0.03287023525607399	0.963121557348641	-0.05488796360685993	0.014335524818871436	0.5201354323397448	-0.07246341378008833	-0.0005188220868838131	0.09240654648226873	-0.0944430357935372	0.017700924237988844	0.03501579187598159	0.08866863785651623	-0.04008176134555895	0.03829736724266132	0.047042527796008864	0.008492398077925912	0.048791977143621684	-0.13069250185695325	0.23902085255387473	0.9596407240946261	-0.06674610062901294	0.24005947300329628	0.5185059782208913	-0.10609944711564838	0.24461900056167143	0.09006243519638436	-0.11596621309249368	0.2740230157798076	0.03659074955972919	0.07469175456885391	0.314397325828429	0.03977801955468079	0.014739234919842277	0.2322622351403415	0.04614317580047851	-0.15228698885543682	0.14605723509293597	1.5742351482677726	-0.10679839389488731	0.14677224956339385	1.8220534919141755	-0.07649528909976756	0.14098379526310764	1.69451781262002	0.04215455190705886	-0.004994805429040833	1.4745707888889252	-0.10370101576334421	-0.08004045528783081	1.2663780909960551	0.0685963187012227	-0.11543212535146344	1.4590792096345748	0.25612736303599354	0.3050020647127077	1.4724041068722302	-0.11962261465157464	0.39781525009919105	1.2525929371165776	0.0286518009211229	0.4222926914987138	1.4287700471178424	0.20197204324340584
334	6.68	0.13653965424589748	0.9776900917499147	-0.05781214360971892	0.03356863115530266	0.9625127949120647	-0.052036819324655044	0.014912421002424734	0.5186781596464713	-0.07184063053957297	0.001624862072941217	0.0884922298559477	-0.09272688949243597	0.02011379753789033	0.03610723571355197	0.09818681926711467	-0.04103049919396818	0.03751067438066852	0.05530633501521533	0.008977617599640516	0.04472811404349631	-0.12916592675639857	0.24018028353659596	0.959079783860558	-0.06599685364965281	0.2425047104992085	0.5172948924537754	-0.10899994825475769	0.24379088019886672	0.08798706585773798	-0.11903747251363989	0.27498356782100924	0.03783237671178092	0.07487790394376762	0.3165429785589948	0.039487431205532414	0.005579925682994163	0.2304589923214977	0.044102390933603165	-0.14951841825786147	0.1466843432728263	1.5760636855854824	-0.11231266423315515	0.14472506398506935	1.8228537145393942	-0.07536342705342729	0.1448402196322559	1.693779911207139	0.05109925177312313	-0.006421494239019989	1.4736271211546603	-0.11189587766704391	-0.08268715555674654	1.2641277957824175	0.06995457477653126	-0.11436963377826632	1.4478457431544922	0.28971960351617637	0.3055037935631425	1.4728383515698462	-0.13177979793306802	0.4010302484945401	1.251053565051231	0.031229594619553543	0.43076595086140923	1.4193115033464918	0.20681578590594463
335	6.7	0.13351314912386364	0.9773134457761776	-0.061829925618787654	0.03309093376195074	0.9591565406329376	-0.055673389551385774	0.014927050122999651	0.5184866034238235	-0.06895883875604043	-0.00014237448046196754	0.08925922975378855	-0.09079655485386777	0.015457703756607103	0.034009655635051664	0.09721600028495378	-0.04270352217147579	0.03670171458177118	0.05109868282541027	0.009365691005472779	0.045429733459182706	-0.1268096547899262	0.23847071850543303	0.9584049114315764	-0.07119531801777104	0.24136290667768837	0.5157071445714587	-0.10761401582372707	0.2426730180995113	0.08725791058548805	-0.11924305855711999	0.2747006266184932	0.03836732178605683	0.07103654997050389	0.3159527336902721	0.038473446324347134	0.009830958099575184	0.23201816486617094	0.04445660366648704	-0.15155001101856175	0.14659009148285304	1.5765199352355264	-0.11615913709704682	0.1446631978212562	1.8226642276307576	-0.07827565253332086	0.1410128493634188	1.6921432230072473	0.051141157542371404	-0.006205085043459434	1.4738964505289276	-0.1093435745868778	-0.08320765076174853	1.2585107306991137	0.0663603490130997	-0.12346094264078222	1.4273759927107796	0.28322985100769477	0.30459991987384244	1.4704500580768256	-0.12608644223236226	0.4023713976422426	1.2512227224970467	0.02282842564932549	0.43970944521700606	1.40501184795036	0.21100920744939416
